<?xml version="1.0" standalone="no"?>
<!DOCTYPE svg PUBLIC "-//W3C//DTD SVG 20010904//EN"
 "http://www.w3.org/TR/2001/REC-SVG-20010904/DTD/svg10.dtd">
<svg version="1.0" xmlns="http://www.w3.org/2000/svg"
 width="16.000000pt" height="16.000000pt" viewBox="0 0 16.000000 16.000000"
 preserveAspectRatio="xMidYMid meet">
<metadata>
Created by potrace 1.11, written by Peter Selinger 2001-2013
</metadata>
<g transform="translate(0.000000,16.000000) scale(0.003463,-0.003463)"
fill="#000000" stroke="none">
<path d="M10 3872 c0 -7 72 -174 110 -257 13 -28 339 -770 420 -955 37 -85
142 -324 233 -530 91 -206 258 -586 372 -845 113 -258 214 -487 224 -508 l17
-38 63 153 c35 84 72 171 81 193 102 234 121 287 112 313 -9 25 -202 477 -242
567 -10 22 -57 132 -104 245 -48 113 -93 219 -101 235 -14 31 -433 1006 -455
1060 -7 17 -19 44 -26 60 -8 17 -41 93 -74 170 l-59 140 -286 3 c-157 1 -285
-1 -285 -6z"/>
<path d="M1370 3877 c0 -4 168 -389 205 -472 8 -16 89 -201 180 -410 92 -209
197 -450 235 -535 109 -249 248 -565 306 -700 70 -161 68 -156 97 -220 14 -30
57 -129 97 -220 40 -91 80 -183 90 -205 10 -22 41 -94 70 -160 28 -66 58 -133
66 -149 8 -16 14 -35 14 -43 0 -26 21 -12 36 25 8 20 19 46 24 57 4 11 45 110
90 220 45 110 88 214 95 230 40 95 51 54 -135 490 -94 220 -177 414 -185 430
-7 17 -95 221 -195 455 -99 234 -190 445 -201 469 -11 24 -29 67 -41 95 -25
63 -13 35 -156 366 l-119 275 -286 3 c-158 1 -287 1 -287 -1z"/>
<path d="M3902 3788 c-22 -51 -84 -194 -137 -318 -53 -124 -102 -238 -110
-255 -7 -16 -65 -150 -129 -297 -63 -147 -124 -287 -134 -310 -11 -24 -29 -64
-40 -89 l-20 -46 200 -449 c109 -247 208 -469 220 -494 11 -25 29 -65 40 -90
11 -25 26 -58 33 -75 30 -67 72 -161 167 -375 55 -124 102 -227 104 -229 5 -6
513 -5 519 1 4 3 -147 356 -274 641 -10 23 -118 273 -241 554 l-222 513 97
222 c85 193 142 321 175 393 5 11 37 83 71 160 33 77 70 160 81 185 12 25 44
99 73 165 29 66 65 146 79 177 14 31 30 68 36 82 l10 26 -279 0 -278 0 -41
-92z"/>
</g>
</svg>
